<?xml version="1.0" encoding="UTF-8" standalone="no"?>
<!-- Created with Inkscape (http://www.inkscape.org/) -->
<svg
   xmlns:ns="http://creativecommons.org/ns#"
   xmlns:dc="http://purl.org/dc/elements/1.1/"
   xmlns:cc="http://web.resource.org/cc/"
   xmlns:rdf="http://www.w3.org/1999/02/22-rdf-syntax-ns#"
   xmlns:svg="http://www.w3.org/2000/svg"
   xmlns="http://www.w3.org/2000/svg"
   xmlns:sodipodi="http://sodipodi.sourceforge.net/DTD/sodipodi-0.dtd"
   xmlns:inkscape="http://www.inkscape.org/namespaces/inkscape"
   width="744.09448819"
   height="1052.3622047"
   id="svg2"
   sodipodi:version="0.32"
   inkscape:version="0.44.1"
   sodipodi:docname="gear.svg"
   sodipodi:docbase="/home/cutelim/shaolin"
   inkscape:export-filename="/home/cutelim/shaolin/gear.png"
   inkscape:export-xdpi="90"
   inkscape:export-ydpi="90">
  <sodipodi:namedview
     id="base"
     pagecolor="#ffffff"
     bordercolor="#666666"
     borderopacity="1.0"
     inkscape:pageopacity="0.0"
     inkscape:pageshadow="2"
     inkscape:zoom="2"
     inkscape:cx="389"
     inkscape:cy="505.07143"
     inkscape:document-units="px"
     inkscape:current-layer="layer1"
     showgrid="false"
     inkscape:window-width="1920"
     inkscape:window-height="1124"
     inkscape:window-x="0"
     inkscape:window-y="0" />
  <defs
     id="defs4">
    <inkscape:perspective
       id="perspective10"
       inkscape:persp3d-origin="372.04724 : 350.78739 : 1"
       inkscape:vp_z="744.09448 : 526.18109 : 1"
       inkscape:vp_y="0 : 1000 : 0"
       inkscape:vp_x="0 : 526.18109 : 1"
       sodipodi:type="inkscape:persp3d" />
  </defs>
  <metadata
     id="metadata7">
    <rdf:RDF>
      <ns:Work
         rdf:about="">
        <dc:format>image/svg+xml</dc:format>
        <dc:type
           rdf:resource="http://purl.org/dc/dcmitype/StillImage" />
        <dc:title />
      </ns:Work>
      <cc:Work
         rdf:about="">
        <dc:format>image/svg+xml</dc:format>
        <dc:type
           rdf:resource="http://purl.org/dc/dcmitype/StillImage" />
      </cc:Work>
    </rdf:RDF>
  </metadata>
  <g
     id="layer1"
     inkscape:groupmode="layer"
     inkscape:label="Layer 1">
    <g
       id="g18"
       transform="translate(320.7143,606.6479)"
       inkscape:label="Gear24">
      <path
         id="path20"
         d="M 69.802,-5.621 L 71.556,-5.762 L 76.231,-4.996 L 82.729,-2.277 L 82.729,2.277 L 76.231,4.996 L 71.556,5.762 L 69.802,5.621 L 68.879,12.637 L 70.609,12.954 L 74.926,14.904 L 80.5,19.212 L 79.321,23.612 L 72.34,24.556 L 67.626,24.086 L 65.969,23.496 L 63.261,30.033 L 64.85,30.788 L 68.516,33.788 L 72.784,39.392 L 70.507,43.337 L 63.52,42.442 L 59.088,40.768 L 57.64,39.769 L 53.332,45.383 L 54.672,46.523 L 57.436,50.37 L 60.109,56.888 L 56.888,60.109 L 50.37,57.436 L 46.523,54.672 L 45.383,53.332 L 39.769,57.64 L 40.768,59.088 L 42.442,63.52 L 43.337,70.507 L 39.392,72.784 L 33.788,68.516 L 30.788,64.85 L 30.033,63.261 L 23.496,65.969 L 24.086,67.626 L 24.556,72.34 L 23.612,79.321 L 19.212,80.5 L 14.904,74.926 L 12.954,70.609 L 12.637,68.879 L 5.621,69.802 L 5.762,71.556 L 4.996,76.231 L 2.277,82.729 L -2.277,82.729 L -4.996,76.231 L -5.762,71.556 L -5.621,69.802 L -12.637,68.879 L -12.954,70.609 L -14.904,74.926 L -19.212,80.5 L -23.612,79.321 L -24.556,72.34 L -24.086,67.626 L -23.496,65.969 L -30.033,63.261 L -30.788,64.85 L -33.788,68.516 L -39.392,72.784 L -43.337,70.507 L -42.442,63.52 L -40.768,59.088 L -39.769,57.64 L -45.383,53.332 L -46.523,54.672 L -50.37,57.436 L -56.888,60.109 L -60.109,56.888 L -57.436,50.37 L -54.672,46.523 L -53.332,45.383 L -57.64,39.769 L -59.088,40.768 L -63.52,42.442 L -70.507,43.337 L -72.784,39.392 L -68.516,33.788 L -64.85,30.788 L -63.261,30.033 L -65.969,23.496 L -67.626,24.086 L -72.34,24.556 L -79.321,23.612 L -80.5,19.212 L -74.926,14.904 L -70.609,12.954 L -68.879,12.637 L -69.802,5.621 L -71.556,5.762 L -76.231,4.996 L -82.729,2.277 L -82.729,-2.277 L -76.231,-4.996 L -71.556,-5.762 L -69.802,-5.621 L -68.879,-12.637 L -70.609,-12.954 L -74.926,-14.904 L -80.5,-19.212 L -79.321,-23.612 L -72.34,-24.556 L -67.626,-24.086 L -65.969,-23.496 L -63.261,-30.033 L -64.85,-30.788 L -68.516,-33.788 L -72.784,-39.392 L -70.507,-43.337 L -63.52,-42.442 L -59.088,-40.768 L -57.64,-39.769 L -53.332,-45.383 L -54.672,-46.523 L -57.436,-50.37 L -60.109,-56.888 L -56.888,-60.109 L -50.37,-57.436 L -46.523,-54.672 L -45.383,-53.332 L -39.769,-57.64 L -40.768,-59.088 L -42.442,-63.52 L -43.337,-70.507 L -39.392,-72.784 L -33.788,-68.516 L -30.788,-64.85 L -30.033,-63.261 L -23.496,-65.969 L -24.086,-67.626 L -24.556,-72.34 L -23.612,-79.321 L -19.212,-80.5 L -14.904,-74.926 L -12.954,-70.609 L -12.637,-68.879 L -5.621,-69.802 L -5.762,-71.556 L -4.996,-76.231 L -2.277,-82.729 L 2.277,-82.729 L 4.996,-76.231 L 5.762,-71.556 L 5.621,-69.802 L 12.637,-68.879 L 12.954,-70.609 L 14.904,-74.926 L 19.212,-80.5 L 23.612,-79.321 L 24.556,-72.34 L 24.086,-67.626 L 23.496,-65.969 L 30.033,-63.261 L 30.788,-64.85 L 33.788,-68.516 L 39.392,-72.784 L 43.337,-70.507 L 42.442,-63.52 L 40.768,-59.088 L 39.769,-57.64 L 45.383,-53.332 L 46.523,-54.672 L 50.37,-57.436 L 56.888,-60.109 L 60.109,-56.888 L 57.436,-50.37 L 54.672,-46.523 L 53.332,-45.383 L 57.64,-39.769 L 59.088,-40.768 L 63.52,-42.442 L 70.507,-43.337 L 72.784,-39.392 L 68.516,-33.788 L 64.85,-30.788 L 63.261,-30.033 L 65.969,-23.496 L 67.626,-24.086 L 72.34,-24.556 L 79.321,-23.612 L 80.5,-19.212 L 74.926,-14.904 L 70.609,-12.954 L 68.879,-12.637 L 69.802,-5.621 z "
         style="fill:none;stroke:black" />
    </g>
    <g
       id="g1872"
       transform="translate(437.1429,503.7908)"
       inkscape:label="Gear24">
      <path
         id="path1874"
         d="M 69.802,-5.621 L 71.556,-5.762 L 76.231,-4.996 L 82.729,-2.277 L 82.729,2.277 L 76.231,4.996 L 71.556,5.762 L 69.802,5.621 L 68.879,12.637 L 70.609,12.954 L 74.926,14.904 L 80.5,19.212 L 79.321,23.612 L 72.34,24.556 L 67.626,24.086 L 65.969,23.496 L 63.261,30.033 L 64.85,30.788 L 68.516,33.788 L 72.784,39.392 L 70.507,43.337 L 63.52,42.442 L 59.088,40.768 L 57.64,39.769 L 53.332,45.383 L 54.672,46.523 L 57.436,50.37 L 60.109,56.888 L 56.888,60.109 L 50.37,57.436 L 46.523,54.672 L 45.383,53.332 L 39.769,57.64 L 40.768,59.088 L 42.442,63.52 L 43.337,70.507 L 39.392,72.784 L 33.788,68.516 L 30.788,64.85 L 30.033,63.261 L 23.496,65.969 L 24.086,67.626 L 24.556,72.34 L 23.612,79.321 L 19.212,80.5 L 14.904,74.926 L 12.954,70.609 L 12.637,68.879 L 5.621,69.802 L 5.762,71.556 L 4.996,76.231 L 2.277,82.729 L -2.277,82.729 L -4.996,76.231 L -5.762,71.556 L -5.621,69.802 L -12.637,68.879 L -12.954,70.609 L -14.904,74.926 L -19.212,80.5 L -23.612,79.321 L -24.556,72.34 L -24.086,67.626 L -23.496,65.969 L -30.033,63.261 L -30.788,64.85 L -33.788,68.516 L -39.392,72.784 L -43.337,70.507 L -42.442,63.52 L -40.768,59.088 L -39.769,57.64 L -45.383,53.332 L -46.523,54.672 L -50.37,57.436 L -56.888,60.109 L -60.109,56.888 L -57.436,50.37 L -54.672,46.523 L -53.332,45.383 L -57.64,39.769 L -59.088,40.768 L -63.52,42.442 L -70.507,43.337 L -72.784,39.392 L -68.516,33.788 L -64.85,30.788 L -63.261,30.033 L -65.969,23.496 L -67.626,24.086 L -72.34,24.556 L -79.321,23.612 L -80.5,19.212 L -74.926,14.904 L -70.609,12.954 L -68.879,12.637 L -69.802,5.621 L -71.556,5.762 L -76.231,4.996 L -82.729,2.277 L -82.729,-2.277 L -76.231,-4.996 L -71.556,-5.762 L -69.802,-5.621 L -68.879,-12.637 L -70.609,-12.954 L -74.926,-14.904 L -80.5,-19.212 L -79.321,-23.612 L -72.34,-24.556 L -67.626,-24.086 L -65.969,-23.496 L -63.261,-30.033 L -64.85,-30.788 L -68.516,-33.788 L -72.784,-39.392 L -70.507,-43.337 L -63.52,-42.442 L -59.088,-40.768 L -57.64,-39.769 L -53.332,-45.383 L -54.672,-46.523 L -57.436,-50.37 L -60.109,-56.888 L -56.888,-60.109 L -50.37,-57.436 L -46.523,-54.672 L -45.383,-53.332 L -39.769,-57.64 L -40.768,-59.088 L -42.442,-63.52 L -43.337,-70.507 L -39.392,-72.784 L -33.788,-68.516 L -30.788,-64.85 L -30.033,-63.261 L -23.496,-65.969 L -24.086,-67.626 L -24.556,-72.34 L -23.612,-79.321 L -19.212,-80.5 L -14.904,-74.926 L -12.954,-70.609 L -12.637,-68.879 L -5.621,-69.802 L -5.762,-71.556 L -4.996,-76.231 L -2.277,-82.729 L 2.277,-82.729 L 4.996,-76.231 L 5.762,-71.556 L 5.621,-69.802 L 12.637,-68.879 L 12.954,-70.609 L 14.904,-74.926 L 19.212,-80.5 L 23.612,-79.321 L 24.556,-72.34 L 24.086,-67.626 L 23.496,-65.969 L 30.033,-63.261 L 30.788,-64.85 L 33.788,-68.516 L 39.392,-72.784 L 43.337,-70.507 L 42.442,-63.52 L 40.768,-59.088 L 39.769,-57.64 L 45.383,-53.332 L 46.523,-54.672 L 50.37,-57.436 L 56.888,-60.109 L 60.109,-56.888 L 57.436,-50.37 L 54.672,-46.523 L 53.332,-45.383 L 57.64,-39.769 L 59.088,-40.768 L 63.52,-42.442 L 70.507,-43.337 L 72.784,-39.392 L 68.516,-33.788 L 64.85,-30.788 L 63.261,-30.033 L 65.969,-23.496 L 67.626,-24.086 L 72.34,-24.556 L 79.321,-23.612 L 80.5,-19.212 L 74.926,-14.904 L 70.609,-12.954 L 68.879,-12.637 L 69.802,-5.621 z "
         style="fill:none;stroke:black" />
    </g>
    <g
       id="g1876"
       transform="translate(468.5714,658.0765)"
       inkscape:label="Gear24">
      <path
         id="path1878"
         d="M 69.802,-5.621 L 71.556,-5.762 L 76.231,-4.996 L 82.729,-2.277 L 82.729,2.277 L 76.231,4.996 L 71.556,5.762 L 69.802,5.621 L 68.879,12.637 L 70.609,12.954 L 74.926,14.904 L 80.5,19.212 L 79.321,23.612 L 72.34,24.556 L 67.626,24.086 L 65.969,23.496 L 63.261,30.033 L 64.85,30.788 L 68.516,33.788 L 72.784,39.392 L 70.507,43.337 L 63.52,42.442 L 59.088,40.768 L 57.64,39.769 L 53.332,45.383 L 54.672,46.523 L 57.436,50.37 L 60.109,56.888 L 56.888,60.109 L 50.37,57.436 L 46.523,54.672 L 45.383,53.332 L 39.769,57.64 L 40.768,59.088 L 42.442,63.52 L 43.337,70.507 L 39.392,72.784 L 33.788,68.516 L 30.788,64.85 L 30.033,63.261 L 23.496,65.969 L 24.086,67.626 L 24.556,72.34 L 23.612,79.321 L 19.212,80.5 L 14.904,74.926 L 12.954,70.609 L 12.637,68.879 L 5.621,69.802 L 5.762,71.556 L 4.996,76.231 L 2.277,82.729 L -2.277,82.729 L -4.996,76.231 L -5.762,71.556 L -5.621,69.802 L -12.637,68.879 L -12.954,70.609 L -14.904,74.926 L -19.212,80.5 L -23.612,79.321 L -24.556,72.34 L -24.086,67.626 L -23.496,65.969 L -30.033,63.261 L -30.788,64.85 L -33.788,68.516 L -39.392,72.784 L -43.337,70.507 L -42.442,63.52 L -40.768,59.088 L -39.769,57.64 L -45.383,53.332 L -46.523,54.672 L -50.37,57.436 L -56.888,60.109 L -60.109,56.888 L -57.436,50.37 L -54.672,46.523 L -53.332,45.383 L -57.64,39.769 L -59.088,40.768 L -63.52,42.442 L -70.507,43.337 L -72.784,39.392 L -68.516,33.788 L -64.85,30.788 L -63.261,30.033 L -65.969,23.496 L -67.626,24.086 L -72.34,24.556 L -79.321,23.612 L -80.5,19.212 L -74.926,14.904 L -70.609,12.954 L -68.879,12.637 L -69.802,5.621 L -71.556,5.762 L -76.231,4.996 L -82.729,2.277 L -82.729,-2.277 L -76.231,-4.996 L -71.556,-5.762 L -69.802,-5.621 L -68.879,-12.637 L -70.609,-12.954 L -74.926,-14.904 L -80.5,-19.212 L -79.321,-23.612 L -72.34,-24.556 L -67.626,-24.086 L -65.969,-23.496 L -63.261,-30.033 L -64.85,-30.788 L -68.516,-33.788 L -72.784,-39.392 L -70.507,-43.337 L -63.52,-42.442 L -59.088,-40.768 L -57.64,-39.769 L -53.332,-45.383 L -54.672,-46.523 L -57.436,-50.37 L -60.109,-56.888 L -56.888,-60.109 L -50.37,-57.436 L -46.523,-54.672 L -45.383,-53.332 L -39.769,-57.64 L -40.768,-59.088 L -42.442,-63.52 L -43.337,-70.507 L -39.392,-72.784 L -33.788,-68.516 L -30.788,-64.85 L -30.033,-63.261 L -23.496,-65.969 L -24.086,-67.626 L -24.556,-72.34 L -23.612,-79.321 L -19.212,-80.5 L -14.904,-74.926 L -12.954,-70.609 L -12.637,-68.879 L -5.621,-69.802 L -5.762,-71.556 L -4.996,-76.231 L -2.277,-82.729 L 2.277,-82.729 L 4.996,-76.231 L 5.762,-71.556 L 5.621,-69.802 L 12.637,-68.879 L 12.954,-70.609 L 14.904,-74.926 L 19.212,-80.5 L 23.612,-79.321 L 24.556,-72.34 L 24.086,-67.626 L 23.496,-65.969 L 30.033,-63.261 L 30.788,-64.85 L 33.788,-68.516 L 39.392,-72.784 L 43.337,-70.507 L 42.442,-63.52 L 40.768,-59.088 L 39.769,-57.64 L 45.383,-53.332 L 46.523,-54.672 L 50.37,-57.436 L 56.888,-60.109 L 60.109,-56.888 L 57.436,-50.37 L 54.672,-46.523 L 53.332,-45.383 L 57.64,-39.769 L 59.088,-40.768 L 63.52,-42.442 L 70.507,-43.337 L 72.784,-39.392 L 68.516,-33.788 L 64.85,-30.788 L 63.261,-30.033 L 65.969,-23.496 L 67.626,-24.086 L 72.34,-24.556 L 79.321,-23.612 L 80.5,-19.212 L 74.926,-14.904 L 70.609,-12.954 L 68.879,-12.637 L 69.802,-5.621 z "
         style="fill:none;stroke:black" />
    </g>
    <text
       xml:space="preserve"
       style="font-size:100px;font-style:normal;font-variant:normal;font-weight:normal;font-stretch:normal;text-align:start;line-height:100%;writing-mode:lr-tb;text-anchor:start;fill:#039;fill-opacity:1;stroke:none;stroke-width:1px;stroke-linecap:butt;stroke-linejoin:miter;stroke-opacity:1;display:inline;font-family:Kai"
       x="254.04535"
       y="632.83789"
       id="text2217"
       sodipodi:linespacing="100%"
       transform="matrix(0.962516,-0.271225,0.271225,0.962516,0,0)"><tspan
         sodipodi:role="line"
         id="tspan2219"
         x="254.04535"
         y="632.83789">λ </tspan></text>
    <text
       xml:space="preserve"
       style="font-size:100px;font-style:normal;font-variant:normal;font-weight:normal;font-stretch:normal;text-align:start;line-height:100%;writing-mode:lr-tb;text-anchor:start;fill:#039;fill-opacity:1;stroke:none;stroke-width:1px;stroke-linecap:butt;stroke-linejoin:miter;stroke-opacity:1;display:inline;font-family:#GungSeo"
       x="445.9884"
       y="529.74023"
       id="text2213"
       sodipodi:linespacing="100%"
       transform="matrix(0.958683,0.284476,-0.284476,0.958683,0,0)"><tspan
         sodipodi:role="line"
         id="tspan2215"
         x="445.9884"
         y="529.74023">∀</tspan></text>
    <text
       xml:space="preserve"
       style="font-size:99.43434143px;font-style:normal;font-weight:normal;fill:#039;fill-opacity:1;stroke:none;stroke-width:1px;stroke-linecap:butt;stroke-linejoin:miter;stroke-opacity:1;font-family:Bitstream Vera Sans"
       x="-474.18948"
       y="-656.604"
       id="text2868"
       transform="scale(-1.058401,-0.944821)"><tspan
         sodipodi:role="line"
         id="tspan2870"
         x="-474.18948"
         y="-656.604">T</tspan></text>
  </g>
</svg>
